<?xml version="1.0" encoding="UTF-8"?>
<svg width="512" height="512" version="1.1" viewBox="0 0 512 512" xmlns="http://www.w3.org/2000/svg">
 <path d="m366 0.705c-9.75 1.86-17.4 9.08-23.7 16.3-4.03 4.59-7.13 9.95-4.25 16 2.6 5.47 7.79 9.79 12 14l93 93c9.31 9.31 18.4 18.9 28 27.9 4.03 3.79 8.99 8.29 15 7.11 5.21-1.02 9.38-5.46 13-9.04 10.7-10.7 17.2-24.7 8.89-39-7.73-13.3-22-24.2-32.9-35l-66-66c-11.6-11.6-24.4-28.9-43-25.3m-71 22.4c-6.45 1.36-11.5 7.45-16 11.9-11.9 11.8-24 26.7-14.5 44 4.03 7.36 10.7 13.1 16.5 19l119 119c14 14 31.1 39.2 54 32.8 11.6-3.22 21-14.2 28.8-22.8 3.93-4.39 7.91-9.86 5.62-16-2.37-6.35-8.74-11.3-13.4-16l-125-125c-12.3-12.3-24.6-24.7-37-37-4.69-4.62-10.6-11.4-18-9.89m150 6.22c-4.93 2.97-0.0213 8.88 2.45 11.7 7.36 8.26 15.5 16.4 23.8 23.8 2.39 2.13 6.51 5.98 10 4.1 5.13-2.74 2.84-13.8 1.06-17.9-4.76-10.9-23.9-29.8-37.3-21.7m-135 130c-5.95 2.21-10.6 8.24-15 12.6l-122 122c-4.32 4.32-9.6 8.63-12.6 14-3.43 6.05-0.363 11.3 3.83 16 7.13 7.95 15 15.6 22.8 22.9 3.79 3.53 8.42 7.52 14 6.03 5.63-1.51 10-6.98 14-10.9l125-125c4.2-4.2 9.58-8.53 12.2-14 2.72-5.76-0.531-10.7-4.35-15-7.41-8.26-15.6-16.4-23.8-23.8-3.9-3.5-8.56-6.8-14-4.78m-250 102c-12.5 2.48-22.6 14.2-30.8 23.3-4.25 4.74-8.21 10.5-5.19 17 2.92 6.26 9.18 11.2 14 16l125 125c12 12 23.9 24.1 36 36 4.69 4.62 10.6 11.4 18 9.89 6.45-1.36 11.5-7.45 16-11.9 12-11.9 23.9-26.6 14.4-44-4.01-7.37-10.6-13.1-16.4-19l-118-118c-13.9-13.9-30.4-38.8-53-34.3m-35 74.8c-4.75 1.56-8.57 6.05-12 9.5-10.3 10.4-17 23.8-9.45 38 7.38 13.8 22.4 25 33.4 36l69 69c12.2 12.2 25.9 28.3 45 20.8 9.13-3.58 27.1-17.4 23.8-28.8-1.52-5.2-6.11-9.27-9.78-13-6.61-6.71-13.3-13.3-20-20l-76-76c-9.64-9.64-19.1-19.6-29-28.9-3.95-3.72-9.1-8.54-15-6.59m6.68 106c-6.07 1.79-3.5 14.3-1.77 18.2 5.07 11.6 22.6 28.1 36.6 22 5.94-2.59 1.01-8.99-1.7-12-7.09-7.97-15-15.6-22.8-22.9-2.49-2.31-6.47-6.45-10.3-5.31z" fill="#020202"/>
</svg>
